<svg width="22" height="22" viewBox="0 0 22 22" fill="none" xmlns="http://www.w3.org/2000/svg">
<path fill-rule="evenodd" clip-rule="evenodd" d="M4 0C2.93913 0 1.92172 0.421427 1.17157 1.17157C0.421427 1.92172 0 2.93913 0 4V18C0 19.0609 0.421427 20.0783 1.17157 20.8284C1.92172 21.5786 2.93913 22 4 22H18C19.0609 22 20.0783 21.5786 20.8284 20.8284C21.5786 20.0783 22 19.0609 22 18V4C22 2.93913 21.5786 1.92172 20.8284 1.17157C20.0783 0.421427 19.0609 0 18 0H4ZM7.59 3.84L3.624 4.137L7.29 11.161L9.977 15.091H12.353L10.861 11.035L7.59 3.84ZM11.702 9.702L13.168 13.684L15.091 10.318V10.323L18.353 4.182H14.068L11.702 9.702ZM15.091 15.615V12.987L18.5 6.57V7.89C18.19 9.117 17.644 10.589 16.974 12.06C16.4193 13.2825 15.7904 14.4691 15.091 15.615ZM3.5 16.158V6.602L5.859 11.12C5.272 13.033 4.513 14.549 3.5 16.158ZM3.681 18.158C4.938 16.311 5.911 14.67 6.659 12.653L6.714 12.758V17.478C6.364 18.001 5.595 18.15 3.681 18.158ZM15.773 18.159L15.099 17.822C16.107 16.502 17.21 14.555 18.111 12.578C18.245 12.284 18.3747 11.989 18.5 11.693V18.159H15.773Z" fill="#FFF5F5"/>
</svg>
